<svg width="1280" height="420" viewBox="0 0 1280 420" fill="none" xmlns="http://www.w3.org/2000/svg" role="img" aria-labelledby="title desc">
  <title id="title">YuanJing GitHub profile header</title>
  <desc id="desc">A clean Apple-inspired header for a software builder profile.</desc>
  <defs>
    <linearGradient id="bg" x1="40" y1="20" x2="1180" y2="400" gradientUnits="userSpaceOnUse">
      <stop stop-color="#F8FAFC"/>
      <stop offset="0.52" stop-color="#F4F7FB"/>
      <stop offset="1" stop-color="#EEF2F7"/>
    </linearGradient>
    <linearGradient id="glass" x1="350" y1="48" x2="1060" y2="360" gradientUnits="userSpaceOnUse">
      <stop stop-color="#FFFFFF" stop-opacity="0.86"/>
      <stop offset="1" stop-color="#EAF0F7" stop-opacity="0.68"/>
    </linearGradient>
    <linearGradient id="accent" x1="420" y1="92" x2="1070" y2="318" gradientUnits="userSpaceOnUse">
      <stop stop-color="#0A84FF"/>
      <stop offset="0.45" stop-color="#64D2FF"/>
      <stop offset="1" stop-color="#30D158"/>
    </linearGradient>
    <filter id="shadow" x="252" y="20" width="794" height="374" filterUnits="userSpaceOnUse" color-interpolation-filters="sRGB">
      <feFlood flood-opacity="0" result="BackgroundImageFix"/>
      <feColorMatrix in="SourceAlpha" type="matrix" values="0 0 0 0 0 0 0 0 0 0 0 0 0 0 0 0 0 0 127 0" result="hardAlpha"/>
      <feOffset dy="20"/>
      <feGaussianBlur stdDeviation="35"/>
      <feComposite in2="hardAlpha" operator="out"/>
      <feColorMatrix type="matrix" values="0 0 0 0 0.22 0 0 0 0 0.28 0 0 0 0 0.36 0 0 0 0.18 0"/>
      <feBlend mode="normal" in2="BackgroundImageFix" result="effect1_dropShadow_1"/>
      <feBlend mode="normal" in="SourceGraphic" in2="effect1_dropShadow_1" result="shape"/>
    </filter>
  </defs>

  <rect width="1280" height="420" rx="40" fill="url(#bg)"/>
  <circle cx="1008" cy="90" r="106" fill="#FFFFFF" fill-opacity="0.78"/>
  <circle cx="1108" cy="328" r="74" fill="#DCEBFA" fill-opacity="0.7"/>
  <circle cx="198" cy="318" r="92" fill="#E8F0F8" fill-opacity="0.8"/>

  <g filter="url(#shadow)">
    <rect x="300" y="62" width="680" height="280" rx="34" fill="url(#glass)" stroke="#FFFFFF" stroke-width="2"/>
    <rect x="328" y="92" width="624" height="12" rx="6" fill="#D8E0EA"/>
    <rect x="328" y="120" width="300" height="148" rx="22" fill="#111827"/>
    <rect x="652" y="120" width="272" height="64" rx="18" fill="#FFFFFF" stroke="#DDE5EF"/>
    <rect x="652" y="202" width="272" height="66" rx="18" fill="#FFFFFF" stroke="#DDE5EF"/>
    <rect x="352" y="145" width="208" height="20" rx="10" fill="#F8FAFC"/>
    <rect x="352" y="182" width="152" height="12" rx="6" fill="#8EA0B8"/>
    <rect x="352" y="212" width="230" height="12" rx="6" fill="#48556A"/>
    <rect x="352" y="236" width="176" height="12" rx="6" fill="#374151"/>
    <path d="M692 152H884" stroke="#1F2937" stroke-width="12" stroke-linecap="round"/>
    <path d="M692 232H856" stroke="#1F2937" stroke-width="12" stroke-linecap="round"/>
    <path d="M692 168H824" stroke="#9AA7B7" stroke-width="8" stroke-linecap="round"/>
    <path d="M692 248H884" stroke="#9AA7B7" stroke-width="8" stroke-linecap="round"/>
    <path d="M328 302C456 246 532 345 644 290C746 240 784 284 952 220" stroke="url(#accent)" stroke-width="8" stroke-linecap="round"/>
  </g>

  <text x="72" y="114" fill="#111827" font-family="-apple-system, BlinkMacSystemFont, Segoe UI, Arial, sans-serif" font-size="34" font-weight="700">YuanJing</text>
  <text x="72" y="158" fill="#667085" font-family="-apple-system, BlinkMacSystemFont, Segoe UI, Arial, sans-serif" font-size="18">software builder · private cinema systems · automation</text>
  <text x="72" y="344" fill="#111827" font-family="-apple-system, BlinkMacSystemFont, Segoe UI, Arial, sans-serif" font-size="24" font-weight="650">Quiet interfaces. Useful tools. Things that feel finished.</text>

  <g transform="translate(1052 78)">
    <rect width="156" height="46" rx="23" fill="#111827"/>
    <circle cx="32" cy="23" r="9" fill="#30D158"/>
    <text x="52" y="29" fill="#F9FAFB" font-family="-apple-system, BlinkMacSystemFont, Segoe UI, Arial, sans-serif" font-size="15" font-weight="650">building</text>
  </g>
</svg>
